<svg width="1408" height="1408" viewBox="0 0 1408 1408" fill="none" xmlns="http://www.w3.org/2000/svg">
<path d="M1408 1112C1408 1130 1404.67 1153.5 1398 1182.5C1391.33 1211.5 1384.33 1234.33 1377 1251C1363 1284.33 1322.33 1319.67 1255 1357C1192.33 1391 1130.33 1408 1069 1408C1051 1408 1033.5 1406.83 1016.5 1404.5C999.5 1402.17 980.333 1398 959 1392C937.667 1386 921.833 1381.17 911.5 1377.5C901.167 1373.83 882.667 1367 856 1357C829.333 1347 813 1341 807 1339C741.667 1315.67 683.333 1288 632 1256C546.667 1203.33 458.5 1131.5 367.5 1040.5C276.5 949.5 204.667 861.333 152 776C120 724.667 92.3333 666.333 69 601C67 595 61 578.667 51 552C41 525.333 34.1667 506.833 30.5 496.5C26.8333 486.167 22 470.333 16 449C10 427.667 5.83333 408.5 3.5 391.5C1.16667 374.5 0 357 0 339C0 277.667 17 215.667 51 153C88.3333 85.6667 123.667 45 157 31C173.667 23.6667 196.5 16.6667 225.5 10C254.5 3.33333 278 0 296 0C305.333 0 312.333 1 317 3C329 7 346.667 32.3333 370 79C377.333 91.6667 387.333 109.667 400 133C412.667 156.333 424.333 177.5 435 196.5C445.667 215.5 456 233.333 466 250C468 252.667 473.833 261 483.5 275C493.167 289 500.333 300.833 505 310.5C509.667 320.167 512 329.667 512 339C512 352.333 502.5 369 483.5 389C464.5 409 443.833 427.333 421.5 444C399.167 460.667 378.5 478.333 359.5 497C340.5 515.667 331 531 331 543C331 549 332.667 556.5 336 565.5C339.333 574.5 342.167 581.333 344.5 586C346.833 590.667 351.5 598.667 358.5 610C365.5 621.333 369.333 627.667 370 629C420.667 720.333 478.667 798.667 544 864C609.333 929.333 687.667 987.333 779 1038C780.333 1038.67 786.667 1042.5 798 1049.5C809.333 1056.5 817.333 1061.17 822 1063.5C826.667 1065.83 833.5 1068.67 842.5 1072C851.5 1075.33 859 1077 865 1077C877 1077 892.333 1067.5 911 1048.5C929.667 1029.5 947.333 1008.83 964 986.5C980.667 964.167 999 943.5 1019 924.5C1039 905.5 1055.67 896 1069 896C1078.33 896 1087.83 898.333 1097.5 903C1107.17 907.667 1119 914.833 1133 924.5C1147 934.167 1155.33 940 1158 942C1174.67 952 1192.5 962.333 1211.5 973C1230.5 983.667 1251.67 995.333 1275 1008C1298.33 1020.67 1316.33 1030.67 1329 1038C1375.67 1061.33 1401 1079 1405 1091C1407 1095.67 1408 1102.67 1408 1112Z" fill="white"/>
</svg>
