<svg width="24" height="24" viewBox="0 0 24 24" fill="none" xmlns="http://www.w3.org/2000/svg">
<path d="M19.4001 13C19.4001 12.7 19.5001 12.3 19.5001 12C19.5001 11.7 19.5001 11.3 19.4001 11L21.5001 9.5C21.7001 9.4 21.8001 9.1 21.6001 8.8L19.6001 5.3C19.5001 5 19.2001 4.9 19.0001 5L16.6001 6.1C16.1001 5.7 15.4001 5.3 14.8001 5.1L14.5001 2.5C14.5001 2.2 14.3001 2 14.0001 2H10.0001C9.70013 2 9.50013 2.2 9.50013 2.5L9.20013 5C8.50013 5.3 7.90013 5.6 7.40013 6L5.00013 5C4.80013 4.9 4.50013 5 4.40013 5.2L2.40013 8.7C2.20013 9 2.20013 9.3 2.50013 9.4L4.60013 11C4.60013 11.3 4.50013 11.7 4.50013 12C4.50013 12.3 4.50013 12.7 4.60013 13L2.50013 14.5C2.30013 14.6 2.20013 14.9 2.40013 15.2L4.40013 18.7C4.50013 19 4.80013 19.1 5.00013 19L7.40013 17.9C7.90013 18.3 8.60013 18.7 9.20013 18.9L9.50013 21.5C9.50013 21.8 9.70013 22 10.0001 22H14.0001C14.3001 22 14.5001 21.8 14.5001 21.5L14.8001 18.9C15.5001 18.6 16.1001 18.3 16.6001 17.9L19.0001 19C19.2001 19.1 19.5001 19 19.6001 18.8L21.6001 15.3C21.7001 15.1 21.7001 14.8 21.5001 14.6L19.4001 13ZM12.0001 16C9.80013 16 8.00013 14.2 8.00013 12C8.00013 9.8 9.80013 8 12.0001 8C14.2001 8 16.0001 9.8 16.0001 12C16.0001 14.2 14.2001 16 12.0001 16Z" fill="white"/>
</svg>
