<svg width="512" height="512" viewBox="0 0 512 512" fill="none" xmlns="http://www.w3.org/2000/svg">
<path d="M430.4 147H362.9L322.5 106.2C322.5 106.2 322.3 106 322.2 106L322 105.8C316 99.8 307.9 96 298.7 96H214.7C204.9 96 196.2 100.2 190.1 106.9V107L150.6 147H81.6C63 147 48 161.6 48 180.2V382.3C48 400.9 63 416 81.6 416H430.4C448.9 416 464 400.9 464 382.3V180.2C464 161.6 448.9 147 430.4 147ZM256 365.5C205.1 365.5 163.6 323.9 163.6 272.9C163.6 221.8 205.1 180.3 256 180.3C307 180.3 348.4 221.8 348.4 272.9C348.4 323.9 307 365.5 256 365.5ZM424.1 200.5C416.4 200.5 410.1 194.2 410.1 186.4C410.1 178.6 416.4 172.3 424.1 172.3C431.8 172.3 438.1 178.6 438.1 186.4C438.1 194.2 431.8 200.5 424.1 200.5Z" fill="white"/>
<path d="M256 202.9C217.4 202.9 186.2 234.2 186.2 272.9C186.2 311.5 217.4 342.9 256 342.9C294.5 342.9 325.8 311.6 325.8 272.9C325.8 234.2 294.5 202.9 256 202.9Z" fill="white"/>
</svg>
