<svg width="316" height="316" viewBox="0 0 316 316" fill="none" xmlns="http://www.w3.org/2000/svg">
<path d="M158 26.3333C131.959 26.3333 106.502 34.0554 84.8499 48.5232C63.1974 62.9909 46.3214 83.5544 36.3558 107.613C26.3903 131.672 23.7829 158.146 28.8632 183.687C33.9436 209.228 46.4837 232.688 64.8976 251.102C83.3115 269.516 106.772 282.056 132.313 287.137C157.854 292.217 184.328 289.61 208.387 279.644C232.446 269.679 253.009 252.803 267.477 231.15C281.944 209.498 289.667 184.041 289.667 158C289.667 140.709 286.261 123.588 279.644 107.613C273.027 91.6388 263.329 77.124 251.102 64.8976C238.876 52.6712 224.361 42.9727 208.387 36.3559C192.412 29.739 175.291 26.3333 158 26.3333V26.3333ZM158 263.333C137.167 263.333 116.802 257.156 99.4799 245.581C82.1579 234.007 68.6571 217.556 60.6847 198.309C52.7122 179.062 50.6263 157.883 54.6906 137.45C58.7549 117.018 68.7869 98.2492 83.5181 83.5181C98.2492 68.7869 117.018 58.7549 137.45 54.6906C157.883 50.6263 179.062 52.7123 198.309 60.6847C217.556 68.6571 234.007 82.1579 245.581 99.4799C257.156 116.802 263.333 137.167 263.333 158C263.333 185.936 252.236 212.728 232.482 232.482C212.728 252.236 185.936 263.333 158 263.333V263.333ZM171.167 79H144.833V171.167H223.833V144.833H171.167V79Z" fill="white"/>
</svg>
