<svg width="24" height="24" viewBox="0 0 24 24" fill="none" xmlns="http://www.w3.org/2000/svg">
<path d="M6 12C6 12 6.8 10.8 7.4 9.89997C7.8 9.29997 8.3 8.89997 9 8.69997L11.1 8.09997C12.3 7.79997 13.5 8.39997 13.9 9.49997L14.5 10.8C14.8 11.6 15.4 12.1 16.2 12.4L18 13" stroke="white" stroke-width="2" stroke-miterlimit="10"/>
<path d="M13 6C14.1046 6 15 5.10457 15 4C15 2.89543 14.1046 2 13 2C11.8954 2 11 2.89543 11 4C11 5.10457 11.8954 6 13 6Z" fill="white"/>
<path d="M10.5998 8.09998L9.59979 12.7C9.39979 13.4 9.69979 14.1 10.0998 14.6L13.4998 18.3L12.4998 13.6L13.3998 9.49998L12.6998 8.09998H10.5998V8.09998Z" fill="white"/>
<path d="M14.5999 22H16.6999C16.2999 21 15.2999 18.5 14.8999 17.3L11.9999 13.1L10.3999 14.3L13.0999 17.9L14.5999 22Z" fill="white"/>
<path d="M7.5998 22L9.8998 19.4L10.6998 17L9.1998 15.3L8.2998 18.2L5.2998 22H7.5998Z" fill="white"/>
</svg>
