<svg width="512" height="512" viewBox="0 0 512 512" fill="none" xmlns="http://www.w3.org/2000/svg">
<path d="M70.7004 164.5L239.9 246.2C244.3 248.3 250.2 249.4 256 249.4C261.8 249.4 267.7 248.3 272.1 246.2L441.3 164.5C450.2 160.2 450.2 153.2 441.3 148.9L272.1 67.2C267.7 65.1 261.8 64 256 64C250.2 64 244.3 65.1 239.9 67.2L70.7004 148.9C61.8004 153.2 61.8004 160.2 70.7004 164.5Z" fill="white"/>
<path d="M441.3 248.2C441.3 248.2 410.4 233.3 406.3 231.3C402.2 229.3 401.1 229.4 396.8 231.4C392.5 233.4 272 291.6 272 291.6C267.5 293.7 261.7 294.8 255.9 294.8C250.1 294.8 244.2 293.7 239.8 291.6C239.8 291.6 122.5 235 117 232.3C111 229.4 109.3 229.4 103.9 232C98.3002 234.7 70.5002 248.1 70.5002 248.1C61.6002 252.4 61.6002 259.4 70.5002 263.7L239.7 345.4C244.1 347.5 250 348.6 255.8 348.6C261.6 348.6 267.5 347.5 271.9 345.4L441.1 263.7C450.2 259.5 450.2 252.5 441.3 248.2Z" fill="white"/>
<path d="M441.3 347.5C441.3 347.5 410.4 332.6 406.3 330.6C402.2 328.6 401.1 328.7 396.8 330.7C392.5 332.7 272.1 391 272.1 391C267.6 393.1 261.8 394.2 256 394.2C250.2 394.2 244.3 393.1 239.9 391C239.9 391 122.6 334.4 117.1 331.7C111.1 328.8 109.4 328.8 104 331.4C98.4003 334.1 70.6003 347.5 70.6003 347.5C61.7003 351.8 61.7003 358.8 70.6003 363.1L239.8 444.8C244.2 447 250.1 448 255.9 448C261.7 448 267.6 446.9 272 444.8L441.2 363.1C450.2 358.8 450.2 351.8 441.3 347.5Z" fill="white"/>
</svg>
