<svg width="96" height="96" viewBox="0 0 96 96" fill="none" xmlns="http://www.w3.org/2000/svg">
<g clip-path="url(#clip0)">
<path d="M24.8452 25.3957C23.6223 24.3801 22.0469 23.89 20.4636 24.0328C18.8804 24.1755 17.4181 24.9394 16.3965 26.1574L1.3974 44.1563C0.494706 45.2337 0 46.5943 0 47.9999C0 49.4054 0.494706 50.766 1.3974 51.8433L16.3965 69.8423C16.8997 70.4519 17.5184 70.9561 18.2171 71.3258C18.9158 71.6955 19.6806 71.9235 20.4677 71.9966C21.2548 72.0697 22.0486 71.9866 22.8035 71.7519C23.5583 71.5172 24.2593 71.1356 24.8662 70.6291C25.473 70.1226 25.9738 69.5011 26.3397 68.8004C26.7056 68.0997 26.9294 67.3336 26.9982 66.5461C27.067 65.7586 26.9794 64.9653 26.7406 64.2118C26.5018 63.4582 26.1163 62.7593 25.6065 62.1553L13.8068 48L25.6068 33.8447C26.6258 32.6231 27.118 31.0469 26.9752 29.4625C26.8324 27.8782 26.0662 26.4154 24.8452 25.3957Z" fill="white"/>
<path d="M55.1714 12.1192C53.6128 11.8241 52.0008 12.1523 50.6817 13.0332C49.3626 13.9141 48.4418 15.2774 48.1172 16.83L36.1179 76.8262C35.9622 77.5988 35.9607 78.3946 36.1134 79.1678C36.2662 79.9409 36.5701 80.6764 37.0078 81.3318C37.4455 81.9872 38.0083 82.5497 38.664 82.987C39.3197 83.4243 40.0553 83.7278 40.8286 83.88C41.2179 83.9602 41.6145 83.9995 42.0121 83.9972C43.3977 83.9951 44.7398 83.5129 45.8102 82.6329C46.8805 81.7528 47.6129 80.5291 47.8828 79.17L59.8821 19.1735C60.0377 18.4009 60.0393 17.6051 59.8866 16.8319C59.7339 16.0586 59.43 15.3232 58.9923 14.6677C58.5546 14.0122 57.9917 13.4497 57.336 13.0123C56.6803 12.575 55.9447 12.2715 55.1714 12.1192V12.1192Z" fill="white"/>
<path d="M94.6028 44.1563L79.6037 26.1574C79.1005 25.5477 78.4818 25.0436 77.7831 24.6738C77.0844 24.3041 76.3196 24.0761 75.5325 24.003C74.7454 23.9299 73.9516 24.0131 73.1968 24.2477C72.4419 24.4824 71.7409 24.864 71.134 25.3705C70.5272 25.877 70.0264 26.4985 69.6605 27.1992C69.2946 27.8999 69.0709 28.6661 69.0021 29.4535C68.9333 30.241 69.0208 31.0343 69.2596 31.7879C69.4985 32.5414 69.8839 33.2403 70.3937 33.8444L82.1934 48L70.3934 62.1554C69.8836 62.7595 69.4982 63.4584 69.2593 64.2119C69.0205 64.9655 68.933 65.7588 69.0018 66.5462C69.0706 67.3337 69.2943 68.0998 69.6602 68.8006C70.0261 69.5013 70.5269 70.1227 71.1337 70.6293C71.7406 71.1358 72.4416 71.5174 73.1965 71.752C73.9513 71.9867 74.7451 72.0699 75.5322 71.9968C76.3193 71.9236 77.0841 71.6957 77.7828 71.3259C78.4815 70.9562 79.1002 70.452 79.6034 69.8424L94.6028 51.8433C95.5055 50.766 96.0002 49.4053 96.0002 47.9998C96.0002 46.5943 95.5055 45.2336 94.6028 44.1563V44.1563Z" fill="white"/>
</g>
<defs>
<clipPath id="clip0">
<rect width="96" height="96" fill="white"/>
</clipPath>
</defs>
</svg>
