<svg width="512" height="512" viewBox="0 0 512 512" fill="none" xmlns="http://www.w3.org/2000/svg">
<path d="M256 48C141.1 48 48 141.1 48 256C48 370.9 141.1 464 256 464C370.9 464 464 370.9 464 256C464 141.1 370.9 48 256 48ZM256 65.3C361.1 65.3 446.7 150.8 446.7 256C446.7 302.5 430 345.1 402.3 378.2C382.3 370 336.4 354.1 309.4 346.1C307 345.4 306.7 345.2 306.7 335.4C306.7 327.3 310 319.1 313.3 312.1C316.9 304.6 321 291.9 322.5 280.5C326.7 275.6 332.5 266 336.1 247.6C339.3 231.4 337.8 225.5 335.7 220C335.5 219.4 335.2 218.8 335.1 218.3C334.3 214.5 335.4 194.8 338.2 179.5C340.1 169 337.7 146.7 323.3 128.2C314.2 116.5 296.7 102.2 264.8 100.2H247.3C215.9 102.2 198.5 116.5 189.3 128.2C174.8 146.7 172.4 169 174.3 179.5C177.1 194.8 178.2 214.5 177.4 218.3C177.2 219 177 219.5 176.8 220.1C174.7 225.6 173.1 231.5 176.4 247.7C180.1 266.1 185.8 275.7 190 280.6C191.5 292 195.7 304.6 199.2 312.2C201.8 317.7 203 325.2 203 335.8C203 345.7 202.6 345.8 200.4 346.5C172.3 354.8 127.8 370.8 110 378.5C82.1 345.3 65.3 302.6 65.3 256C65.3 150.9 150.9 65.3 256 65.3Z" fill="white"/>
</svg>
