<svg width="100" height="100" viewBox="0 0 100 100" fill="none" xmlns="http://www.w3.org/2000/svg">
<path d="M67.9998 77L66.1998 78.3L45.3998 68.8L24.2998 40.2C20.9998 35.8 22.7998 29 28.1998 25C33.5998 21 40.6998 21.3 43.9998 25.8L64.9998 54.3L65.0998 54.2L67.9998 77ZM61.5998 72.1L63.3998 70.8L62.5998 58.9C61.1998 59 54.0998 59.2 52.5998 58.1C53.1998 59.8 50.8998 66.5 50.3998 67.8L61.5998 72.1ZM47.4998 65.9C50.3998 61.1 49.7998 55.9 49.7998 55.9L37.2998 39C34.9998 40.9 33.3998 43.5 32.6998 46L47.4998 65.9ZM30.1998 27.7C26.8998 30.1 25.3998 33.9 26.1998 36.7C26.9998 34.1 28.7998 31.4 31.4998 29.5C34.1998 27.6 37.1998 26.5 39.9998 26.6C37.4998 24.9 33.4998 25.3 30.1998 27.7ZM42.4998 29.3C39.5998 29.2 36.3998 30.1 33.5998 32.2C30.6998 34.3 28.8998 37 28.1998 39.9L30.7998 43.4C31.4998 40.7 33.2998 37.8 36.1998 35.7C39.0998 33.6 42.2998 32.7 45.0998 32.8L42.4998 29.3ZM38.9998 37.7L51.4998 54.6C51.4998 54.6 56.2998 56.7 61.6998 55.4L46.9998 35.6C44.4998 35.4 41.6998 36.1 38.9998 37.7Z" fill="white"/>
</svg>
