<svg width="16" height="16" viewBox="0 0 16 16" fill="none" xmlns="http://www.w3.org/2000/svg">
<g clip-path="url(#clip0)">
<path d="M4.47975 11.1527C4.69297 11.1527 4.89597 11.1337 5.08684 11.091C5.28072 11.0489 5.45228 10.9815 5.59772 10.8823C5.74237 10.7868 5.86281 10.6558 5.94991 10.4899C6.03741 10.3248 6.07944 10.1105 6.07944 9.8518C6.07944 9.34471 5.93628 8.98418 5.65263 8.76568C5.36784 8.54981 4.98875 8.44265 4.52256 8.44265H2.16659V11.1527H4.47975V11.1527ZM4.35972 6.9634C4.74334 6.9634 5.06147 6.87249 5.31331 6.68768C5.5625 6.50552 5.68291 6.20521 5.68291 5.79243C5.68291 5.56368 5.64316 5.37434 5.5625 5.2274C5.47878 5.08046 5.36784 4.96571 5.22847 4.88502C5.08988 4.80134 4.93306 4.74377 4.75169 4.71234C4.57291 4.67749 4.38622 4.66387 4.19422 4.66387H2.16659V6.9634H4.35972V6.9634ZM4.63997 2.9873C5.11069 2.9873 5.53559 3.02784 5.92378 3.1123C6.31006 3.19409 6.63916 3.3308 6.91791 3.51827C7.19209 3.70574 7.40681 3.95493 7.56056 4.26887C7.71016 4.57827 7.78553 4.96571 7.78553 5.42355C7.78553 5.9189 7.67341 6.33284 7.44809 6.66384C7.22163 6.99405 6.88872 7.26484 6.4445 7.4754C7.04931 7.64962 7.49847 7.95599 7.79575 8.3919C8.09456 8.83081 8.24109 9.35571 8.24109 9.97149C8.24109 10.4706 8.14569 10.9001 7.95444 11.2617C7.76166 11.6276 7.49922 11.9241 7.17578 12.1529C6.84972 12.3835 6.47594 12.5531 6.05634 12.6634C5.64166 12.7732 5.21106 12.8289 4.76947 12.8289H0V2.9873H4.63997V2.9873Z" fill="white"/>
<path d="M13.5815 7.37617C13.3486 7.11902 12.9551 6.97967 12.4745 6.97967C12.1617 6.97967 11.903 7.0323 11.6955 7.13948C11.4925 7.24552 11.3266 7.37692 11.1997 7.5322C11.0732 7.68973 10.9877 7.85639 10.9373 8.03436C10.8873 8.20783 10.857 8.36498 10.8483 8.50398H14.0325C13.9859 8.00483 13.8151 7.63558 13.5815 7.37617V7.37617ZM11.3323 11.1205C11.6258 11.4068 12.0496 11.5507 12.5987 11.5507C12.9933 11.5507 13.3342 11.4511 13.6205 11.2519C13.9041 11.0531 14.0768 10.8406 14.1435 10.6202H15.8673C15.5901 11.478 15.1702 12.0904 14.5964 12.4592C14.0295 12.8292 13.3387 13.0136 12.5332 13.0136C11.9719 13.0136 11.4667 12.9228 11.0131 12.744C10.5597 12.5626 10.181 12.3089 9.86216 11.9775C9.55159 11.645 9.31037 11.2519 9.13844 10.7902C8.96841 10.3309 8.88281 9.82227 8.88281 9.27123C8.88281 8.73839 8.97181 8.24077 9.146 7.78064C9.32325 7.31898 9.56941 6.92058 9.89244 6.58658C10.2162 6.25064 10.5999 5.98555 11.0467 5.79164C11.494 5.59889 11.9871 5.50195 12.5332 5.50195C13.1361 5.50195 13.6636 5.61783 14.1166 5.85414C14.5672 6.08742 14.9372 6.40327 15.2277 6.79864C15.5178 7.19327 15.725 7.64467 15.8541 8.15102C15.9821 8.65658 16.0272 9.18452 15.9904 9.73742H10.8483C10.8483 10.301 11.0384 10.8342 11.3323 11.1205V11.1205Z" fill="white"/>
<path d="M14.4347 3.64746H10.4453V4.61846H14.4347V3.64746Z" fill="white"/>
</g>
<defs>
<clipPath id="clip0">
<rect width="16" height="16" fill="white"/>
</clipPath>
</defs>
</svg>
